<?xml version="1.0" encoding="UTF-8" standalone="no"?>
<!-- Created with Inkscape (http://www.inkscape.org/) -->

<svg
   xmlns:dc="http://purl.org/dc/elements/1.1/"
   xmlns:cc="http://creativecommons.org/ns#"
   xmlns:rdf="http://www.w3.org/1999/02/22-rdf-syntax-ns#"
   xmlns:svg="http://www.w3.org/2000/svg"
   xmlns="http://www.w3.org/2000/svg"
   xmlns:inkscape="http://www.inkscape.org/namespaces/inkscape"
   version="1.1"
   width="900"
   height="675"
   id="svg2"
   xml:space="preserve"><metadata
     id="metadata8"><rdf:RDF><cc:Work
         rdf:about=""><dc:format>image/svg+xml</dc:format><dc:type
           rdf:resource="http://purl.org/dc/dcmitype/StillImage" /></cc:Work></rdf:RDF></metadata><defs
     id="defs6"><clipPath
       id="clipPath18"><path
         d="m 0,2.324581e-5 719.9999,0 0,539.99999675419 L 0,540.00002 0,2.324581e-5 z"
         inkscape:connector-curvature="0"
         id="path20" /></clipPath><pattern
       id="pattern106"
       height="8"
       width="8"
       y="0"
       x="0"
       patternUnits="userSpaceOnUse"
       patternTransform="matrix(0.9622526,-0.2721573,0.2721573,0.9622526,882.9302,-768.2579)"><g
         id="g108" /><g
         id="g110"><path
           id="path112"
           style="fill:none;stroke:#ffffff;stroke-opacity:1;stroke-width:1;stroke-linecap:butt;stroke-linejoin:miter;stroke-miterlimit:10;stroke-dasharray:1,3;stroke-dashoffset:0"
           d="m 0,0.5 8,0" /><path
           id="path114"
           style="fill:none;stroke:#ffffff;stroke-opacity:1;stroke-width:1;stroke-linecap:butt;stroke-linejoin:miter;stroke-miterlimit:10;stroke-dasharray:1,3;stroke-dashoffset:0"
           d="m 1,1.5 7,0" /><path
           id="path116"
           style="fill:none;stroke:#ffffff;stroke-opacity:1;stroke-width:1;stroke-linecap:butt;stroke-linejoin:miter;stroke-miterlimit:10;stroke-dasharray:1,3;stroke-dashoffset:0"
           d="m 2,2.5 6,0" /><path
           id="path118"
           style="fill:none;stroke:#ffffff;stroke-opacity:1;stroke-width:1;stroke-linecap:butt;stroke-linejoin:miter;stroke-miterlimit:10;stroke-dasharray:1,3;stroke-dashoffset:0"
           d="m 3,3.5 5,0" /><path
           id="path120"
           style="fill:none;stroke:#ffffff;stroke-opacity:1;stroke-width:1;stroke-linecap:butt;stroke-linejoin:miter;stroke-miterlimit:10;stroke-dasharray:1,3;stroke-dashoffset:0"
           d="m 0,4.5 8,0" /><path
           id="path122"
           style="fill:none;stroke:#ffffff;stroke-opacity:1;stroke-width:1;stroke-linecap:butt;stroke-linejoin:miter;stroke-miterlimit:10;stroke-dasharray:1,3;stroke-dashoffset:0"
           d="m 1,5.5 7,0" /><path
           id="path124"
           style="fill:none;stroke:#ffffff;stroke-opacity:1;stroke-width:1;stroke-linecap:butt;stroke-linejoin:miter;stroke-miterlimit:10;stroke-dasharray:1,3;stroke-dashoffset:0"
           d="m 2,6.5 6,0" /><path
           id="path126"
           style="fill:none;stroke:#ffffff;stroke-opacity:1;stroke-width:1;stroke-linecap:butt;stroke-linejoin:miter;stroke-miterlimit:10;stroke-dasharray:1,3;stroke-dashoffset:0"
           d="m 3,7.5 5,0" /></g></pattern></defs><g
     transform="matrix(1.25,0,0,-1.25,0,675)"
     id="g10"><g
       id="g12" /><g
       id="g14"><g
         clip-path="url(#clipPath18)"
         id="g16"><path
           d="m 0,539.9999 719.9999,0 0,-539.99986920617 -719.9999,0 L 0,539.9999 z"
           inkscape:connector-curvature="0"
           id="path22"
           style="fill:#000000;fill-opacity:1;fill-rule:evenodd;stroke:none" /><path
           d="m 90.60589,151.8644 c 1.3463,20.3096 18.90191,35.6824 39.21151,34.3361 20.3096,-1.3463 35.6823,-18.9019 34.336,-39.2115 -1.3463,-20.3096 -18.9018,-35.6824 -39.2114,-34.3361 -20.3096,1.3463 -35.68242,18.9019 -34.33611,39.2115 z"
           inkscape:connector-curvature="0"
           id="path24"
           style="fill:#ffffff;fill-opacity:1;fill-rule:evenodd;stroke:none" /><g
           transform="matrix(7.856771e-5,-5.208178e-6,-5.208178e-6,-7.856771e-5,93.04359,188.6382)"
           id="g26"><path
             d="M 0.02729062,468052 C 0.05132462,209553.9 209554.1,0.0640046 468052.1,-0.00864254 726550,-0.06847188 936104.1,209553.9 936104.1,468052 936104,726550.1 726550,936104 468052,936104 209554,936104.1 0.00325662,726550.1 0.02729062,468052 z"
             inkscape:connector-curvature="0"
             id="path28"
             style="fill:none;stroke:#000000;stroke-width:9525;stroke-linecap:butt;stroke-linejoin:round;stroke-miterlimit:10;stroke-opacity:1;stroke-dasharray:none" /></g><path
           d="m 149.9426,166.509 28.1379,-18.9123 -30.388,-15.0327 2.2501,33.945 z"
           inkscape:connector-curvature="0"
           id="path30"
           style="fill:#ffffff;fill-opacity:1;fill-rule:evenodd;stroke:none" /><g
           transform="matrix(7.856771e-5,-5.208178e-6,-5.208178e-6,-7.856771e-5,143.2111,173.9479)"
           id="g32"><path
             d="M 0.00850631,139824 C 0.02503,62601.24 62601.28,-0.1189064 139824,-0.1023827 217046.6,-0.07304119 279648,62601.18 279647.9,139823.9 c 0,77222.8 -62601.2,139824 -139824,139824.1 C 62601.36,279648 -0.02083518,217046.6 0.00850631,139824 z"
             inkscape:connector-curvature="0"
             id="path34"
             style="fill:none;stroke:#000000;stroke-width:38100;stroke-linecap:butt;stroke-linejoin:round;stroke-miterlimit:10;stroke-opacity:1;stroke-dasharray:none" /></g><g
           transform="matrix(7.856771e-5,-5.208178e-6,-5.208178e-6,-7.856771e-5,141.6673,150.6591)"
           id="g36"><path
             d="M 0.00879708,139824 C 0.02532077,62601.24 62601.28,-0.1226637 139824,-0.10614 217046.6,-0.07679851 279648,62601.18 279647.9,139823.9 c 0,77222.8 -62601.2,139824.1 -139824,139824 C 62601.36,279648 -0.02054441,217046.6 0.00879708,139824 z"
             inkscape:connector-curvature="0"
             id="path38"
             style="fill:none;stroke:#000000;stroke-width:38100;stroke-linecap:butt;stroke-linejoin:round;stroke-miterlimit:10;stroke-opacity:1;stroke-dasharray:none" /></g><path
           d="m 153.2048,161.0724 c 0.1951,2.9427 2.7387,5.17 5.6814,4.975 2.9426,-0.1951 5.17,-2.7387 4.9749,-5.6814 -0.195,-2.9426 -2.7387,-5.17 -5.6813,-4.9749 -2.9427,0.195 -5.17,2.7387 -4.975,5.6813 z"
           inkscape:connector-curvature="0"
           id="path40"
           style="fill:#000000;fill-opacity:1;fill-rule:evenodd;stroke:none" /><g
           transform="matrix(7.856771e-5,-5.208178e-6,-5.208178e-6,-7.856771e-5,153.558,166.4006)"
           id="g42"><path
             d="M 0.1081937,67816.09 C 0.1388518,30362.31 30362.38,-0.07819134 67816.16,-0.04753321 105269.8,-0.00405729 135632.1,30362.24 135632.1,67816.02 135632.1,105269.8 105269.8,135632 67816.04,135632 30362.26,135631.9 0.06471777,105269.7 0.1081937,67816.09 z"
             inkscape:connector-curvature="0"
             id="path44"
             style="fill:none;stroke:#000000;stroke-width:38100;stroke-linecap:butt;stroke-linejoin:round;stroke-miterlimit:10;stroke-opacity:1;stroke-dasharray:none" /></g><path
           d="m 151.661,137.7837 c 0.1951,2.9426 2.7387,5.17 5.6814,4.9749 2.9426,-0.195 5.17,-2.7387 4.9749,-5.6813 -0.195,-2.9427 -2.7387,-5.17 -5.6813,-4.975 -2.9427,0.1951 -5.17,2.7387 -4.975,5.6814 z"
           inkscape:connector-curvature="0"
           id="path46"
           style="fill:#000000;fill-opacity:1;fill-rule:evenodd;stroke:none" /><g
           transform="matrix(7.856771e-5,-5.208178e-6,-5.208178e-6,-7.856771e-5,152.0142,143.1118)"
           id="g48"><path
             d="M 0.05293998,67816.04 C 0.08359811,30362.26 30362.33,-0.1257686 67816.11,-0.09511046 105269.7,-0.05163454 135632.1,30362.2 135632,67815.98 135632,105269.8 105269.8,135631.9 67815.98,135631.9 30362.2,135631.9 0.00946406,105269.6 0.05293998,67816.04 z"
             inkscape:connector-curvature="0"
             id="path50"
             style="fill:none;stroke:#000000;stroke-width:38100;stroke-linecap:butt;stroke-linejoin:round;stroke-miterlimit:10;stroke-opacity:1;stroke-dasharray:none" /></g><path
           d="m 575.9756,147.5753 c 0,20.3541 -16.5003,36.8544 -36.8545,36.8544 -20.3542,0 -36.8545,-16.5003 -36.8545,-36.8544 0,-20.3542 16.5003,-36.8545 36.8545,-36.8545 20.3542,0 36.8545,16.5003 36.8545,36.8545 z"
           inkscape:connector-curvature="0"
           id="path52"
           style="fill:#ffffff;fill-opacity:1;fill-rule:evenodd;stroke:none" /><g
           transform="matrix(-7.874014e-5,0,0,-7.874014e-5,575.9756,184.4297)"
           id="g54"><path
             d="M -0.06635857,468052 C -0.06635857,209554.2 209553.8,0.08338916 468052.1,0.08338916 726550.2,0.08338916 936103.8,209554.2 936103.8,468052 c 0,258498.1 -209553.6,468052.1 -468051.7,468052.1 C 209553.8,936104.1 -0.06635857,726550.1 -0.06635857,468052 z"
             inkscape:connector-curvature="0"
             id="path56"
             style="fill:none;stroke:#000000;stroke-width:9525;stroke-linecap:butt;stroke-linejoin:round;stroke-miterlimit:10;stroke-opacity:1;stroke-dasharray:none" /></g><path
           d="m 517.7374,166.1126 -29.3272,-17.0097 29.3272,-17.0098 0,34.0195 z"
           inkscape:connector-curvature="0"
           id="path58"
           style="fill:#ffffff;fill-opacity:1;fill-rule:evenodd;stroke:none" /><g
           transform="matrix(-7.874014e-5,0,0,-7.874014e-5,524.9463,173.0899)"
           id="g60"><path
             d="M 0.1036205,139824.2 C 0.1036205,62601.54 62601.72,0.1211623 139824.2,0.1211623 c 77222.4,0 139824,62601.4188377 139824,139824.0788377 0,77222.6 -62601.6,139824 -139824,139824 C 62601.72,279648.2 0.1036205,217046.8 0.1036205,139824.2 z"
             inkscape:connector-curvature="0"
             id="path62"
             style="fill:none;stroke:#000000;stroke-width:38100;stroke-linecap:butt;stroke-linejoin:round;stroke-miterlimit:10;stroke-opacity:1;stroke-dasharray:none" /></g><g
           transform="matrix(-7.874014e-5,0,0,-7.874014e-5,524.9463,149.7501)"
           id="g64"><path
             d="M 0.1036205,139824 C 0.1036205,62601.41 62601.72,-0.01141372 139824.2,-0.01141372 c 77222.4,0 139824,62601.42141372 139824,139824.01141372 0,77222.7 -62601.6,139824 -139824,139824 C 62601.72,279648 0.1036205,217046.7 0.1036205,139824 z"
             inkscape:connector-curvature="0"
             id="path66"
             style="fill:none;stroke:#000000;stroke-width:38100;stroke-linecap:butt;stroke-linejoin:round;stroke-miterlimit:10;stroke-opacity:1;stroke-dasharray:none" /></g><path
           d="m 514.1228,160.9037 c 0,2.9491 -2.3907,5.3398 -5.3398,5.3398 -2.9491,0 -5.3399,-2.3907 -5.3399,-5.3398 0,-2.9491 2.3908,-5.3398 5.3399,-5.3398 2.9491,0 5.3398,2.3907 5.3398,5.3398 z"
           inkscape:connector-curvature="0"
           id="path68"
           style="fill:#000000;fill-opacity:1;fill-rule:evenodd;stroke:none" /><g
           transform="matrix(-7.874014e-5,0,0,-7.874014e-5,514.1228,166.2435)"
           id="g70"><path
             d="M -0.09887266,67816.17 C -0.09887266,30362.45 30362.01,0.1470463 67815.93,0.1470463 105269.5,0.1470463 135632,30362.45 135632,67816.17 135632,105269.9 105269.5,135632.2 67815.93,135632.2 30362.01,135632.2 -0.09887266,105269.9 -0.09887266,67816.17 z"
             inkscape:connector-curvature="0"
             id="path72"
             style="fill:none;stroke:#000000;stroke-width:38100;stroke-linecap:butt;stroke-linejoin:round;stroke-miterlimit:10;stroke-opacity:1;stroke-dasharray:none" /></g><path
           d="m 514.1228,137.5638 c 0,2.9491 -2.3907,5.3399 -5.3398,5.3399 -2.9491,0 -5.3399,-2.3908 -5.3399,-5.3399 0,-2.9491 2.3908,-5.3398 5.3399,-5.3398 2.9491,0 5.3398,2.3907 5.3398,5.3398 z"
           inkscape:connector-curvature="0"
           id="path74"
           style="fill:#000000;fill-opacity:1;fill-rule:evenodd;stroke:none" /><g
           transform="matrix(-7.874014e-5,0,0,-7.874014e-5,514.1228,142.9037)"
           id="g76"><path
             d="M -0.09887266,67816 C -0.09887266,30362.27 30362.01,-0.02916977 67815.93,-0.02916977 105269.5,-0.02916977 135632,30362.27 135632,67816 c 0,37453.7 -30362.5,67816 -67816.07,67816 C 30362.01,135632 -0.09887266,105269.7 -0.09887266,67816 z"
             inkscape:connector-curvature="0"
             id="path78"
             style="fill:none;stroke:#000000;stroke-width:38100;stroke-linecap:butt;stroke-linejoin:round;stroke-miterlimit:10;stroke-opacity:1;stroke-dasharray:none" /></g><path
           d="m 507.4179,417.4179 124.7382,90.7187"
           inkscape:connector-curvature="0"
           id="path80"
           style="fill:#00c5ff;fill-opacity:1;fill-rule:evenodd;stroke:none" /><g
           transform="matrix(7.874014e-5,0,0,7.874014e-5,507.4179,417.4179)"
           id="g82"><path
             d="M 0.03145581,-0.2567521 1584176,1152128"
             inkscape:connector-curvature="0"
             id="path84"
             style="fill:none;stroke:#ffffff;stroke-width:76200;stroke-linecap:butt;stroke-linejoin:round;stroke-miterlimit:10;stroke-opacity:1;stroke-dasharray:none" /></g><path
           d="m 630.7673,508.1366 137.467,-10e-5"
           inkscape:connector-curvature="0"
           id="path86"
           style="fill:#00c5ff;fill-opacity:1;fill-rule:evenodd;stroke:none" /><g
           transform="matrix(7.874014e-5,0,0,-7.874014e-5,630.7673,508.1366)"
           id="g88"><path
             d="M -0.126431,0.3421404 1745830,1.50486"
             inkscape:connector-curvature="0"
             id="path90"
             style="fill:none;stroke:#ffffff;stroke-width:76200;stroke-linecap:butt;stroke-linejoin:round;stroke-miterlimit:10;stroke-opacity:1;stroke-dasharray:none" /></g><path
           d="m 475.9636,502.4667 -504.62288,-10e-5"
           inkscape:connector-curvature="0"
           id="path92"
           style="fill:#00c5ff;fill-opacity:1;fill-rule:evenodd;stroke:none" /><g
           transform="matrix(-7.874014e-5,0,0,-7.874014e-5,475.9636,502.4667)"
           id="g94"><path
             d="M 0.05768824,-0.1389731 6408712,1.023747"
             inkscape:connector-curvature="0"
             id="path96"
             style="fill:none;stroke:#ffffff;stroke-width:76200;stroke-linecap:butt;stroke-linejoin:round;stroke-miterlimit:10;stroke-opacity:1;stroke-dasharray:none" /></g><g
           transform="matrix(7.874014e-5,0,0,-7.874014e-5,479.0683,641.3398)"
           id="g98"><path
             d="M -0.06297702,1800200 C -0.06297702,805977.3 805976.8,0.00690472 1800200,0.00690472 2794423,0.00690472 3600400,805977.3 3600400,1800200 c 0,994223 -805977,1800200 -1800200,1800200 C 805976.8,3600400 -0.06297702,2794423 -0.06297702,1800200 z"
             inkscape:connector-curvature="0"
             id="path100"
             style="fill:none;stroke:#ffffff;stroke-width:9525;stroke-linecap:butt;stroke-linejoin:round;stroke-miterlimit:10;stroke-opacity:1;stroke-dasharray:none" /></g><path
           d="m 558.4471,440.0976 181.4375,0 0,-90.7187 -181.4375,0 0,90.7187 z"
           inkscape:connector-curvature="0"
           id="path102"
           style="fill:#000000;fill-opacity:1;fill-rule:evenodd;stroke:none" /><path
           d="M 281.6128,267.4081 456.3769,217.9789 406.9478,43.21474 232.1836,92.64391 281.6128,267.4081 z"
           inkscape:connector-curvature="0"
           id="path104"
           style="fill:#000000;fill-opacity:1;fill-rule:evenodd;stroke:none" /><path
           d="M 281.6128,267.4081 456.3769,217.9789 406.9478,43.21474 232.1836,92.64391 281.6128,267.4081 z"
           inkscape:connector-curvature="0"
           id="path128"
           style="fill:url(#pattern106);fill-opacity:1;fill-rule:evenodd;stroke:none" /><g
           transform="matrix(7.576792e-5,-2.142971e-5,-2.142971e-5,-7.576792e-5,281.6128,267.4081)"
           id="g130"><path
             d="M -0.1391473,0.2258084 2306572,0.2293486 2306572,2306572 -0.1163173,2306572 -0.1391473,0.2258084 z"
             inkscape:connector-curvature="0"
             id="path132"
             style="fill:none;stroke:#ffffff;stroke-width:76200;stroke-linecap:butt;stroke-linejoin:round;stroke-miterlimit:10;stroke-opacity:1;stroke-dasharray:none" /></g></g></g></g></svg>