<?xml version="1.0" encoding="UTF-8" standalone="no"?>
<!-- Created with Inkscape (http://www.inkscape.org/) -->

<svg
   xmlns:dc="http://purl.org/dc/elements/1.1/"
   xmlns:cc="http://creativecommons.org/ns#"
   xmlns:rdf="http://www.w3.org/1999/02/22-rdf-syntax-ns#"
   xmlns:svg="http://www.w3.org/2000/svg"
   xmlns="http://www.w3.org/2000/svg"
   xmlns:inkscape="http://www.inkscape.org/namespaces/inkscape"
   version="1.1"
   width="900"
   height="675"
   id="svg2"
   xml:space="preserve"><metadata
     id="metadata8"><rdf:RDF><cc:Work
         rdf:about=""><dc:format>image/svg+xml</dc:format><dc:type
           rdf:resource="http://purl.org/dc/dcmitype/StillImage" /></cc:Work></rdf:RDF></metadata><defs
     id="defs6"><clipPath
       id="clipPath18"><path
         d="m 0,2.324581e-5 719.9999,0 0,539.99999675419 L 0,540.00002 0,2.324581e-5 z"
         inkscape:connector-curvature="0"
         id="path20" /></clipPath><pattern
       id="pattern106"
       height="8"
       width="8"
       y="0"
       x="0"
       patternUnits="userSpaceOnUse"
       patternTransform="matrix(0.9622526,-0.2721573,0.2721573,0.9622526,882.9302,-768.2579)"><g
         id="g108" /><g
         id="g110"><path
           id="path112"
           style="fill:none;stroke:#ffffff;stroke-opacity:1;stroke-width:1;stroke-linecap:butt;stroke-linejoin:miter;stroke-miterlimit:10;stroke-dasharray:1,3;stroke-dashoffset:0"
           d="m 0,0.5 8,0" /><path
           id="path114"
           style="fill:none;stroke:#ffffff;stroke-opacity:1;stroke-width:1;stroke-linecap:butt;stroke-linejoin:miter;stroke-miterlimit:10;stroke-dasharray:1,3;stroke-dashoffset:0"
           d="m 1,1.5 7,0" /><path
           id="path116"
           style="fill:none;stroke:#ffffff;stroke-opacity:1;stroke-width:1;stroke-linecap:butt;stroke-linejoin:miter;stroke-miterlimit:10;stroke-dasharray:1,3;stroke-dashoffset:0"
           d="m 2,2.5 6,0" /><path
           id="path118"
           style="fill:none;stroke:#ffffff;stroke-opacity:1;stroke-width:1;stroke-linecap:butt;stroke-linejoin:miter;stroke-miterlimit:10;stroke-dasharray:1,3;stroke-dashoffset:0"
           d="m 3,3.5 5,0" /><path
           id="path120"
           style="fill:none;stroke:#ffffff;stroke-opacity:1;stroke-width:1;stroke-linecap:butt;stroke-linejoin:miter;stroke-miterlimit:10;stroke-dasharray:1,3;stroke-dashoffset:0"
           d="m 0,4.5 8,0" /><path
           id="path122"
           style="fill:none;stroke:#ffffff;stroke-opacity:1;stroke-width:1;stroke-linecap:butt;stroke-linejoin:miter;stroke-miterlimit:10;stroke-dasharray:1,3;stroke-dashoffset:0"
           d="m 1,5.5 7,0" /><path
           id="path124"
           style="fill:none;stroke:#ffffff;stroke-opacity:1;stroke-width:1;stroke-linecap:butt;stroke-linejoin:miter;stroke-miterlimit:10;stroke-dasharray:1,3;stroke-dashoffset:0"
           d="m 2,6.5 6,0" /><path
           id="path126"
           style="fill:none;stroke:#ffffff;stroke-opacity:1;stroke-width:1;stroke-linecap:butt;stroke-linejoin:miter;stroke-miterlimit:10;stroke-dasharray:1,3;stroke-dashoffset:0"
           d="m 3,7.5 5,0" /></g></pattern></defs><g
     transform="matrix(1.25,0,0,-1.25,0,675)"
     id="g10"><g
       id="g12" /><g
       id="g14"><g
         clip-path="url(#clipPath18)"
         id="g16"><path
           d="m 0,539.9999 719.9999,0 0,-539.99986920617 -719.9999,0 L 0,539.9999 z"
           inkscape:connector-curvature="0"
           id="path22"
           style="fill:#000000;fill-opacity:1;fill-rule:evenodd;stroke:none" /><path
           d="m 106.8076,212.6183 c 5.5051,19.5955 25.8532,31.0181 45.4487,25.513 19.5956,-5.5051 31.0182,-25.8532 25.5131,-45.4488 -5.5051,-19.5956 -25.8532,-31.0181 -45.4488,-25.513 -19.5956,5.5051 -31.0181,25.8532 -25.513,45.4488 z"
           inkscape:connector-curvature="0"
           id="path24"
           style="fill:#ffffff;fill-opacity:1;fill-rule:evenodd;stroke:none" /><g
           transform="matrix(7.580547e-5,-2.129651e-5,-2.129651e-5,-7.580547e-5,116.7755,248.0992)"
           id="g26"><path
             d="M 0.00595629,468051.9 C 0.0199009,209554 209554.1,-0.07502296 468051.9,0.03220373 726549.9,-0.09954637 936103.9,209554 936104,468052 936103.9,726549.9 726550.1,936103.9 468052,936103.9 209554,936104.1 -0.04885775,726549.9 0.00595629,468051.9 z"
             inkscape:connector-curvature="0"
             id="path28"
             style="fill:none;stroke:#000000;stroke-width:9525;stroke-linecap:butt;stroke-linejoin:round;stroke-miterlimit:10;stroke-opacity:1;stroke-dasharray:none" /></g><path
           d="m 167.889,214.7132 23.6336,-24.3077 -32.8347,-8.4439 9.2011,32.7516 z"
           inkscape:connector-curvature="0"
           id="path30"
           style="fill:#ffffff;fill-opacity:1;fill-rule:evenodd;stroke:none" /><g
           transform="matrix(7.580547e-5,-2.129651e-5,-2.129651e-5,-7.580547e-5,162.8359,223.3802)"
           id="g32"><path
             d="M -0.0115415,139824.1 C 0.0422536,62601.44 62601.44,0.02043169 139824.1,0.0742268 217046.7,-0.05854225 279648.1,62601.34 279648,139824 c 0,77222.6 -62601.2,139824 -139824.1,139824 C 62601.35,279648.1 0.1212275,217046.7 -0.0115415,139824.1 z"
             inkscape:connector-curvature="0"
             id="path34"
             style="fill:none;stroke:#000000;stroke-width:38100;stroke-linecap:butt;stroke-linejoin:round;stroke-miterlimit:10;stroke-opacity:1;stroke-dasharray:none" /></g><g
           transform="matrix(7.580547e-5,-2.129651e-5,-2.129651e-5,-7.580547e-5,156.5232,200.9103)"
           id="g36"><path
             d="M 0.03023833,139824 C 0.08403343,62601.35 62601.48,-0.07001089 139824.1,-0.01621579 217046.7,-0.1489848 279648.1,62601.25 279648.1,139823.9 279648,217046.5 217046.8,279647.9 139824,279647.9 62601.39,279648 0.1630074,217046.6 0.03023833,139824 z"
             inkscape:connector-curvature="0"
             id="path38"
             style="fill:none;stroke:#000000;stroke-width:38100;stroke-linecap:butt;stroke-linejoin:round;stroke-miterlimit:10;stroke-opacity:1;stroke-dasharray:none" /></g><path
           d="m 169.96,208.7208 c 0.7976,2.8392 3.7459,4.4943 6.5851,3.6966 2.8392,-0.7976 4.4942,-3.7458 3.6966,-6.585 -0.7977,-2.8393 -3.7459,-4.4943 -6.5851,-3.6966 -2.8392,0.7976 -4.4942,3.7458 -3.6966,6.585 z"
           inkscape:connector-curvature="0"
           id="path40"
           style="fill:#000000;fill-opacity:1;fill-rule:evenodd;stroke:none" /><g
           transform="matrix(7.580547e-5,-2.129651e-5,-2.129651e-5,-7.580547e-5,171.4043,213.8617)"
           id="g42"><path
             d="M 0.0633437,67816.03 C 0.09483477,30362.22 30362.25,-3.347844e-4 67816.06,0.03115628 105269.9,0.06264734 135632.1,30362.22 135632.1,67816.03 135632,105269.8 105269.9,135632.1 67816.06,135632 30362.25,135632 0.03185264,105269.8 0.0633437,67816.03 z"
             inkscape:connector-curvature="0"
             id="path44"
             style="fill:none;stroke:#000000;stroke-width:38100;stroke-linecap:butt;stroke-linejoin:round;stroke-miterlimit:10;stroke-opacity:1;stroke-dasharray:none" /></g><path
           d="m 163.6474,186.2508 c 0.7977,2.8392 3.7459,4.4942 6.5851,3.6966 2.8392,-0.7976 4.4942,-3.7459 3.6966,-6.5851 -0.7977,-2.8392 -3.7459,-4.4942 -6.5851,-3.6965 -2.8392,0.7976 -4.4942,3.7458 -3.6966,6.585 z"
           inkscape:connector-curvature="0"
           id="path46"
           style="fill:#000000;fill-opacity:1;fill-rule:evenodd;stroke:none" /><g
           transform="matrix(7.580547e-5,-2.129651e-5,-2.129651e-5,-7.580547e-5,165.0917,191.3916)"
           id="g48"><path
             d="M 0.02796116,67816.12 C 0.05945222,30362.32 30362.22,0.09828308 67816.03,0.1297741 105269.8,0.1612652 135632.1,30362.32 135632,67816.13 135632,105269.9 105269.8,135632.2 67816.02,135632.1 30362.21,135632.1 -0.00352991,105269.9 0.02796116,67816.12 z"
             inkscape:connector-curvature="0"
             id="path50"
             style="fill:none;stroke:#000000;stroke-width:38100;stroke-linecap:butt;stroke-linejoin:round;stroke-miterlimit:10;stroke-opacity:1;stroke-dasharray:none" /></g><path
           d="m 553.0897,89.02069 c 6.3767,19.32951 -4.1236,40.16851 -23.453,46.54521 -19.3296,6.3767 -40.1686,-4.1236 -46.5453,-23.4531 -6.3767,-19.32949 4.1236,-40.16849 23.4531,-46.54521 19.3295,-6.37671 40.1685,4.12359 46.5452,23.4531 z"
           inkscape:connector-curvature="0"
           id="path52"
           style="fill:#ffffff;fill-opacity:1;fill-rule:evenodd;stroke:none" /><g
           transform="matrix(-7.477623e-5,2.466833e-5,-2.466833e-5,-7.477623e-5,564.6358,124.0199)"
           id="g54"><path
             d="M 0.4047683,468052.1 C 0.465013,209554.1 209554.4,0.05022474 468051.9,-0.04130806 726550.2,-0.07402796 936104,209554 936104.3,468052.1 936104.2,726550 726550.3,936104 468052,936104 209554.2,936104 0.3445236,726550.1 0.4047683,468052.1 z"
             inkscape:connector-curvature="0"
             id="path56"
             style="fill:none;stroke:#000000;stroke-width:9525;stroke-linecap:butt;stroke-linejoin:round;stroke-miterlimit:10;stroke-opacity:1;stroke-dasharray:none" /></g><path
           d="m 503.5908,124.8702 -33.1797,-6.9656 22.5218,-25.34132 10.6579,32.30692 z"
           inkscape:connector-curvature="0"
           id="path58"
           style="fill:#ffffff;fill-opacity:1;fill-rule:evenodd;stroke:none" /><g
           transform="matrix(-7.477623e-5,2.466833e-5,-2.466833e-5,-7.477623e-5,512.6227,129.2378)"
           id="g60"><path
             d="M -0.04273473,139824.1 C 0.1632457,62601.52 62601.34,0.2024968 139823.9,0.1940906 217046.5,0.1856845 279648,62601.42 279648.2,139824.2 c -0.2,77222.6 -62601.4,139824 -139824,139824 C 62601.22,279648.1 0.1193469,217046.9 -0.04273473,139824.1 z"
             inkscape:connector-curvature="0"
             id="path62"
             style="fill:none;stroke:#000000;stroke-width:38100;stroke-linecap:butt;stroke-linejoin:round;stroke-miterlimit:10;stroke-opacity:1;stroke-dasharray:none" /></g><g
           transform="matrix(-7.477623e-5,2.466833e-5,-2.466833e-5,-7.477623e-5,505.3107,107.0729)"
           id="g64"><path
             d="M 0.1309192,139824 C 0.3368997,62601.43 62601.54,0.02126031 139824.1,0.0128542 217046.7,0.0044481 279648.2,62601.43 279648.3,139824.1 c -0.1,77222.6 -62601.4,139824 -139824,139824 C 62601.39,279648 0.2930009,217046.8 0.1309192,139824 z"
             inkscape:connector-curvature="0"
             id="path66"
             style="fill:none;stroke:#000000;stroke-width:38100;stroke-linecap:butt;stroke-linejoin:round;stroke-miterlimit:10;stroke-opacity:1;stroke-dasharray:none" /></g><path
           d="m 498.5263,121.0559 c 0.9239,2.8006 -0.5975,5.82 -3.3981,6.7439 -2.8007,0.9239 -5.82,-0.5974 -6.744,-3.3981 -0.9239,-2.8006 0.5975,-5.82 3.3982,-6.7439 2.8006,-0.924 5.82,0.5974 6.7439,3.3981 z"
           inkscape:connector-curvature="0"
           id="path68"
           style="fill:#000000;fill-opacity:1;fill-rule:evenodd;stroke:none" /><g
           transform="matrix(-7.477623e-5,2.466833e-5,-2.466833e-5,-7.477623e-5,500.1992,126.1269)"
           id="g70"><path
             d="M 0.4563554,67816.17 C 0.4528371,30362.51 30362.76,0.2445258 67816.24,0.1802965 105270.1,0.2374892 135632.2,30362.4 135632.5,67816.27 c 0,37453.63 -30362.3,67815.93 -67816.11,67815.83 C 30362.51,135632.2 0.4295182,105269.9 0.4563554,67816.17 z"
             inkscape:connector-curvature="0"
             id="path72"
             style="fill:none;stroke:#000000;stroke-width:38100;stroke-linecap:butt;stroke-linejoin:round;stroke-miterlimit:10;stroke-opacity:1;stroke-dasharray:none" /></g><path
           d="m 491.2142,98.89104 c 0.9239,2.80066 -0.5975,5.81996 -3.3981,6.74396 -2.8007,0.9239 -5.82,-0.5975 -6.744,-3.3982 -0.9239,-2.8006 0.5975,-5.81996 3.3981,-6.74388 2.8007,-0.92393 5.8201,0.59747 6.744,3.39812 z"
           inkscape:connector-curvature="0"
           id="path74"
           style="fill:#000000;fill-opacity:1;fill-rule:evenodd;stroke:none" /><g
           transform="matrix(-7.477623e-5,2.466833e-5,-2.466833e-5,-7.477623e-5,492.8871,103.9621)"
           id="g76"><path
             d="M 0.07190244,67816.16 C 0.06838416,30362.5 30362.38,0.2330083 67815.86,0.168779 105269.7,0.1339562 135631.8,30362.38 135632.2,67816.27 c 0,37453.63 -30362.3,67815.93 -67816.19,67815.83 C 30362.13,135632.2 0.04506522,105269.9 0.07190244,67816.16 z"
             inkscape:connector-curvature="0"
             id="path78"
             style="fill:none;stroke:#000000;stroke-width:38100;stroke-linecap:butt;stroke-linejoin:round;stroke-miterlimit:10;stroke-opacity:1;stroke-dasharray:none" /></g><path
           d="m 507.4179,417.4179 124.7382,90.7187"
           inkscape:connector-curvature="0"
           id="path80"
           style="fill:#00c5ff;fill-opacity:1;fill-rule:evenodd;stroke:none" /><g
           transform="matrix(7.874014e-5,0,0,7.874014e-5,507.4179,417.4179)"
           id="g82"><path
             d="M 0.03145581,-0.2567521 1584176,1152128"
             inkscape:connector-curvature="0"
             id="path84"
             style="fill:none;stroke:#ffffff;stroke-width:76200;stroke-linecap:butt;stroke-linejoin:round;stroke-miterlimit:10;stroke-opacity:1;stroke-dasharray:none" /></g><path
           d="m 630.7673,508.1366 137.467,-10e-5"
           inkscape:connector-curvature="0"
           id="path86"
           style="fill:#00c5ff;fill-opacity:1;fill-rule:evenodd;stroke:none" /><g
           transform="matrix(7.874014e-5,0,0,-7.874014e-5,630.7673,508.1366)"
           id="g88"><path
             d="M -0.126431,0.3421404 1745830,1.50486"
             inkscape:connector-curvature="0"
             id="path90"
             style="fill:none;stroke:#ffffff;stroke-width:76200;stroke-linecap:butt;stroke-linejoin:round;stroke-miterlimit:10;stroke-opacity:1;stroke-dasharray:none" /></g><path
           d="m 475.9636,502.4667 -504.62288,-10e-5"
           inkscape:connector-curvature="0"
           id="path92"
           style="fill:#00c5ff;fill-opacity:1;fill-rule:evenodd;stroke:none" /><g
           transform="matrix(-7.874014e-5,0,0,-7.874014e-5,475.9636,502.4667)"
           id="g94"><path
             d="M 0.05768824,-0.1389731 6408712,1.023747"
             inkscape:connector-curvature="0"
             id="path96"
             style="fill:none;stroke:#ffffff;stroke-width:76200;stroke-linecap:butt;stroke-linejoin:round;stroke-miterlimit:10;stroke-opacity:1;stroke-dasharray:none" /></g><g
           transform="matrix(7.874014e-5,0,0,-7.874014e-5,479.0683,641.3398)"
           id="g98"><path
             d="M -0.06297702,1800200 C -0.06297702,805977.3 805976.8,0.00690472 1800200,0.00690472 2794423,0.00690472 3600400,805977.3 3600400,1800200 c 0,994223 -805977,1800200 -1800200,1800200 C 805976.8,3600400 -0.06297702,2794423 -0.06297702,1800200 z"
             inkscape:connector-curvature="0"
             id="path100"
             style="fill:none;stroke:#ffffff;stroke-width:9525;stroke-linecap:butt;stroke-linejoin:round;stroke-miterlimit:10;stroke-opacity:1;stroke-dasharray:none" /></g><path
           d="m 558.4471,440.0976 181.4375,0 0,-90.7187 -181.4375,0 0,90.7187 z"
           inkscape:connector-curvature="0"
           id="path102"
           style="fill:#000000;fill-opacity:1;fill-rule:evenodd;stroke:none" /><path
           d="M 281.6128,267.4081 456.3769,217.9789 406.9478,43.21474 232.1836,92.64391 281.6128,267.4081 z"
           inkscape:connector-curvature="0"
           id="path104"
           style="fill:#000000;fill-opacity:1;fill-rule:evenodd;stroke:none" /><path
           d="M 281.6128,267.4081 456.3769,217.9789 406.9478,43.21474 232.1836,92.64391 281.6128,267.4081 z"
           inkscape:connector-curvature="0"
           id="path128"
           style="fill:url(#pattern106);fill-opacity:1;fill-rule:evenodd;stroke:none" /><g
           transform="matrix(7.576792e-5,-2.142971e-5,-2.142971e-5,-7.576792e-5,281.6128,267.4081)"
           id="g130"><path
             d="M -0.1391473,0.2258084 2306572,0.2293486 2306572,2306572 -0.1163173,2306572 -0.1391473,0.2258084 z"
             inkscape:connector-curvature="0"
             id="path132"
             style="fill:none;stroke:#ffffff;stroke-width:76200;stroke-linecap:butt;stroke-linejoin:round;stroke-miterlimit:10;stroke-opacity:1;stroke-dasharray:none" /></g></g></g></g></svg>